# xmcd
#
# Track frame offsets: 
#        150
#        18165
#        32865
#        54200
#        70695
#        85302
#        97812
#        114770
#        130632
#        146240
#        160562
#        182127
#        201347
#        218702
#
# Disc length: 3181 seconds
#
# Revision: 0
# Processed by: cddbd v1.5.2PL0 Copyright (c) Steve Scherf et al.
# Submitted via: ExactAudioCopyFreeDBPlugin 1.0
#
DISCID=b10c6b0e
DTITLE=ไก่ พรรณนิภา - สาวเชียงใหม่
DYEAR=1900
DGENRE=
TTITLE0=สาวเชียงใหม่
TTITLE1=เทพธิดาดอย
TTITLE2=ยอยศพระลอ
TTITLE3=สวรรค์บ้านนอก(คู่)
TTITLE4=น้ำใจชาวเหนือ(สาวเครือฟ้า)
TTITLE5=เสียใจ๋แต้ว่า
TTITLE6=ของกิ๋นคนเมือง
TTITLE7=อุ๊ยคำ
TTITLE8=ขอสูมาเต้อ
TTITLE9=ชำมะเลียง
TTITLE10=วังบัวบาน
TTITLE11=สาวสะอื้น
TTITLE12=แม่ปิงรำลึก
TTITLE13=เสียงซึงสั่งลา
EXTD=
EXTT0=
EXTT1=
EXTT2=
EXTT3=
EXTT4=
EXTT5=
EXTT6=
EXTT7=
EXTT8=
EXTT9=
EXTT10=
EXTT11=
EXTT12=
EXTT13=
PLAYORDER=
